<mxfile host="app.diagrams.net" modified="2024-03-28T03:26:38.886Z" agent="Mozilla/5.0 (Windows NT 10.0; Win64; x64) AppleWebKit/537.36 (KHTML, like Gecko) Chrome/123.0.0.0 Safari/537.36" etag="6D4RwhQyI-KCadxpoeiA" version="24.2.0" type="device">
  <diagram name="Page-1" id="IrM-bsCj1tZyLcyUB5sw">
    <mxGraphModel dx="2625" dy="1393" grid="1" gridSize="10" guides="1" tooltips="1" connect="1" arrows="1" fold="1" page="1" pageScale="1" pageWidth="1169" pageHeight="1654" background="none" math="0" shadow="1">
      <root>
        <mxCell id="0" />
        <mxCell id="1" parent="0" />
        <mxCell id="UoB7t3MtmNTo_9bZN951-2" value="Login" style="ellipse;whiteSpace=wrap;html=1;fontSize=18;fillColor=#f5f5f5;gradientColor=#b3b3b3;strokeColor=#666666;" vertex="1" parent="1">
          <mxGeometry x="472" y="10" width="160" height="80" as="geometry" />
        </mxCell>
        <mxCell id="UoB7t3MtmNTo_9bZN951-3" value="Register" style="ellipse;whiteSpace=wrap;html=1;fontSize=18;fillColor=#f5f5f5;gradientColor=#b3b3b3;strokeColor=#666666;" vertex="1" parent="1">
          <mxGeometry x="480" y="100" width="160" height="80" as="geometry" />
        </mxCell>
        <mxCell id="UoB7t3MtmNTo_9bZN951-5" value="Delete Material" style="ellipse;whiteSpace=wrap;html=1;fontSize=18;fillColor=#f5f5f5;gradientColor=#b3b3b3;strokeColor=#666666;" vertex="1" parent="1">
          <mxGeometry x="450" y="200" width="160" height="80" as="geometry" />
        </mxCell>
        <mxCell id="UoB7t3MtmNTo_9bZN951-7" value="Delete Files" style="ellipse;whiteSpace=wrap;html=1;fontSize=18;fillColor=#f5f5f5;gradientColor=#b3b3b3;strokeColor=#666666;" vertex="1" parent="1">
          <mxGeometry x="600" y="400" width="160" height="80" as="geometry" />
        </mxCell>
        <mxCell id="UoB7t3MtmNTo_9bZN951-8" value="Join Material" style="ellipse;whiteSpace=wrap;html=1;fontSize=18;fillColor=#f5f5f5;gradientColor=#b3b3b3;strokeColor=#666666;" vertex="1" parent="1">
          <mxGeometry x="670" y="620" width="160" height="80" as="geometry" />
        </mxCell>
        <mxCell id="UoB7t3MtmNTo_9bZN951-9" value="Share Material" style="ellipse;whiteSpace=wrap;html=1;fontSize=18;fillColor=#f5f5f5;gradientColor=#b3b3b3;strokeColor=#666666;" vertex="1" parent="1">
          <mxGeometry x="570" y="520" width="160" height="80" as="geometry" />
        </mxCell>
        <mxCell id="UoB7t3MtmNTo_9bZN951-10" value="Comment On Material" style="ellipse;whiteSpace=wrap;html=1;fontSize=18;fillColor=#f5f5f5;gradientColor=#b3b3b3;strokeColor=#666666;" vertex="1" parent="1">
          <mxGeometry x="570" y="830" width="160" height="80" as="geometry" />
        </mxCell>
        <mxCell id="UoB7t3MtmNTo_9bZN951-12" value="Leave Material" style="ellipse;whiteSpace=wrap;html=1;fontSize=18;fillColor=#f5f5f5;gradientColor=#b3b3b3;strokeColor=#666666;" vertex="1" parent="1">
          <mxGeometry x="530" y="730" width="160" height="80" as="geometry" />
        </mxCell>
        <mxCell id="UoB7t3MtmNTo_9bZN951-14" value="Download Files" style="ellipse;whiteSpace=wrap;html=1;fontSize=18;fillColor=#f5f5f5;gradientColor=#b3b3b3;strokeColor=#666666;" vertex="1" parent="1">
          <mxGeometry x="720" y="460" width="160" height="80" as="geometry" />
        </mxCell>
        <mxCell id="UoB7t3MtmNTo_9bZN951-15" value="Like Material" style="ellipse;whiteSpace=wrap;html=1;fontSize=18;fillColor=#f5f5f5;gradientColor=#b3b3b3;strokeColor=#666666;" vertex="1" parent="1">
          <mxGeometry x="380" y="810" width="160" height="80" as="geometry" />
        </mxCell>
        <mxCell id="UoB7t3MtmNTo_9bZN951-16" value="View Comments" style="ellipse;whiteSpace=wrap;html=1;fontSize=18;fillColor=#f5f5f5;gradientColor=#b3b3b3;strokeColor=#666666;" vertex="1" parent="1">
          <mxGeometry x="500" y="630" width="160" height="80" as="geometry" />
        </mxCell>
        <mxCell id="UoB7t3MtmNTo_9bZN951-17" value="Reset Password" style="ellipse;whiteSpace=wrap;html=1;fontSize=18;fillColor=#f5f5f5;gradientColor=#b3b3b3;strokeColor=#666666;" vertex="1" parent="1">
          <mxGeometry x="670" y="160" width="160" height="80" as="geometry" />
        </mxCell>
        <object placeholders="1" c4Name="Share-Hub" c4Type="SystemScopeBoundary" c4Application="Document Sharing System" label="&lt;font style=&quot;font-size: 13px;&quot;&gt;&lt;b style=&quot;font-size: 13px;&quot;&gt;&lt;div style=&quot;text-align: left; font-size: 13px;&quot;&gt;%c4Name%&lt;/div&gt;&lt;/b&gt;&lt;/font&gt;&lt;div style=&quot;text-align: left; font-size: 13px;&quot;&gt;[%c4Application%]&lt;/div&gt;" id="UoB7t3MtmNTo_9bZN951-1">
          <mxCell style="rounded=1;fontSize=13;whiteSpace=wrap;html=1;dashed=1;arcSize=20;fillColor=none;labelBackgroundColor=none;align=left;verticalAlign=bottom;labelBorderColor=none;spacingTop=0;spacing=10;dashPattern=8 4;metaEdit=1;rotatable=0;perimeter=rectanglePerimeter;noLabel=0;labelPadding=0;allowArrows=0;connectable=0;expand=0;recursiveResize=0;editable=1;pointerEvents=0;absoluteArcSize=1;points=[[0.25,0,0],[0.5,0,0],[0.75,0,0],[1,0.25,0],[1,0.5,0],[1,0.75,0],[0.75,1,0],[0.5,1,0],[0.25,1,0],[0,0.75,0],[0,0.5,0],[0,0.25,0]];" vertex="1" parent="1">
            <mxGeometry x="360" width="570" height="940" as="geometry" />
          </mxCell>
        </object>
        <mxCell id="UoB7t3MtmNTo_9bZN951-11" value="Create Material" style="ellipse;whiteSpace=wrap;html=1;fontSize=18;fillColor=#f5f5f5;gradientColor=#b3b3b3;strokeColor=#666666;" vertex="1" parent="1">
          <mxGeometry x="725" y="240" width="160" height="80" as="geometry" />
        </mxCell>
        <mxCell id="UoB7t3MtmNTo_9bZN951-13" value="Upload Files" style="ellipse;whiteSpace=wrap;html=1;fontSize=18;fillColor=#f5f5f5;gradientColor=#b3b3b3;strokeColor=#666666;" vertex="1" parent="1">
          <mxGeometry x="750" y="330" width="160" height="80" as="geometry" />
        </mxCell>
        <mxCell id="UoB7t3MtmNTo_9bZN951-22" value="&lt;font style=&quot;font-size: 18px;&quot;&gt;User&lt;/font&gt;" style="shape=umlActor;verticalLabelPosition=bottom;verticalAlign=top;html=1;outlineConnect=0;" vertex="1" parent="1">
          <mxGeometry x="220" y="390" width="60" height="120" as="geometry" />
        </mxCell>
        <mxCell id="UoB7t3MtmNTo_9bZN951-24" value="" style="endArrow=none;html=1;rounded=0;exitX=1;exitY=0.3333333333333333;exitDx=0;exitDy=0;exitPerimeter=0;entryX=0;entryY=0.5;entryDx=0;entryDy=0;" edge="1" parent="1" source="UoB7t3MtmNTo_9bZN951-22" target="UoB7t3MtmNTo_9bZN951-8">
          <mxGeometry width="50" height="50" relative="1" as="geometry">
            <mxPoint x="160" y="260" as="sourcePoint" />
            <mxPoint x="210" y="210" as="targetPoint" />
          </mxGeometry>
        </mxCell>
        <mxCell id="UoB7t3MtmNTo_9bZN951-25" value="" style="endArrow=none;html=1;rounded=0;exitX=1;exitY=0.3333333333333333;exitDx=0;exitDy=0;exitPerimeter=0;entryX=0;entryY=0.5;entryDx=0;entryDy=0;" edge="1" parent="1" source="UoB7t3MtmNTo_9bZN951-22" target="UoB7t3MtmNTo_9bZN951-13">
          <mxGeometry width="50" height="50" relative="1" as="geometry">
            <mxPoint x="170" y="270" as="sourcePoint" />
            <mxPoint x="220" y="220" as="targetPoint" />
          </mxGeometry>
        </mxCell>
        <mxCell id="UoB7t3MtmNTo_9bZN951-26" value="" style="endArrow=none;html=1;rounded=0;exitX=1;exitY=0.3333333333333333;exitDx=0;exitDy=0;exitPerimeter=0;entryX=0;entryY=0.5;entryDx=0;entryDy=0;" edge="1" parent="1" source="UoB7t3MtmNTo_9bZN951-22" target="UoB7t3MtmNTo_9bZN951-14">
          <mxGeometry width="50" height="50" relative="1" as="geometry">
            <mxPoint x="180" y="280" as="sourcePoint" />
            <mxPoint x="230" y="230" as="targetPoint" />
          </mxGeometry>
        </mxCell>
        <mxCell id="UoB7t3MtmNTo_9bZN951-27" value="" style="endArrow=none;html=1;rounded=0;exitX=1;exitY=0.3333333333333333;exitDx=0;exitDy=0;exitPerimeter=0;entryX=0;entryY=0.5;entryDx=0;entryDy=0;" edge="1" parent="1" source="UoB7t3MtmNTo_9bZN951-22" target="UoB7t3MtmNTo_9bZN951-11">
          <mxGeometry width="50" height="50" relative="1" as="geometry">
            <mxPoint x="190" y="290" as="sourcePoint" />
            <mxPoint x="240" y="240" as="targetPoint" />
          </mxGeometry>
        </mxCell>
        <mxCell id="UoB7t3MtmNTo_9bZN951-28" value="" style="endArrow=none;html=1;rounded=0;exitX=1;exitY=0.3333333333333333;exitDx=0;exitDy=0;exitPerimeter=0;entryX=0;entryY=1;entryDx=0;entryDy=0;" edge="1" parent="1" source="UoB7t3MtmNTo_9bZN951-22" target="UoB7t3MtmNTo_9bZN951-17">
          <mxGeometry width="50" height="50" relative="1" as="geometry">
            <mxPoint x="200" y="300" as="sourcePoint" />
            <mxPoint x="250" y="250" as="targetPoint" />
          </mxGeometry>
        </mxCell>
        <mxCell id="UoB7t3MtmNTo_9bZN951-29" value="" style="endArrow=none;html=1;rounded=0;exitX=1;exitY=0.3333333333333333;exitDx=0;exitDy=0;exitPerimeter=0;entryX=0;entryY=0.5;entryDx=0;entryDy=0;" edge="1" parent="1" source="UoB7t3MtmNTo_9bZN951-22" target="UoB7t3MtmNTo_9bZN951-15">
          <mxGeometry width="50" height="50" relative="1" as="geometry">
            <mxPoint x="210" y="310" as="sourcePoint" />
            <mxPoint x="260" y="260" as="targetPoint" />
          </mxGeometry>
        </mxCell>
        <mxCell id="UoB7t3MtmNTo_9bZN951-30" value="" style="endArrow=none;html=1;rounded=0;exitX=1;exitY=0.3333333333333333;exitDx=0;exitDy=0;exitPerimeter=0;entryX=0;entryY=0.5;entryDx=0;entryDy=0;" edge="1" parent="1" source="UoB7t3MtmNTo_9bZN951-22" target="UoB7t3MtmNTo_9bZN951-12">
          <mxGeometry width="50" height="50" relative="1" as="geometry">
            <mxPoint x="220" y="320" as="sourcePoint" />
            <mxPoint x="270" y="270" as="targetPoint" />
          </mxGeometry>
        </mxCell>
        <mxCell id="UoB7t3MtmNTo_9bZN951-31" value="" style="endArrow=none;html=1;rounded=0;exitX=1;exitY=0.3333333333333333;exitDx=0;exitDy=0;exitPerimeter=0;entryX=0;entryY=0.5;entryDx=0;entryDy=0;" edge="1" parent="1" source="UoB7t3MtmNTo_9bZN951-22" target="UoB7t3MtmNTo_9bZN951-9">
          <mxGeometry width="50" height="50" relative="1" as="geometry">
            <mxPoint x="230" y="330" as="sourcePoint" />
            <mxPoint x="280" y="280" as="targetPoint" />
          </mxGeometry>
        </mxCell>
        <mxCell id="UoB7t3MtmNTo_9bZN951-32" value="" style="endArrow=none;html=1;rounded=0;exitX=1;exitY=0.3333333333333333;exitDx=0;exitDy=0;exitPerimeter=0;" edge="1" parent="1" source="UoB7t3MtmNTo_9bZN951-22" target="UoB7t3MtmNTo_9bZN951-7">
          <mxGeometry width="50" height="50" relative="1" as="geometry">
            <mxPoint x="240" y="340" as="sourcePoint" />
            <mxPoint x="470" y="420" as="targetPoint" />
          </mxGeometry>
        </mxCell>
        <mxCell id="UoB7t3MtmNTo_9bZN951-33" value="" style="endArrow=none;html=1;rounded=0;exitX=1;exitY=0.3333333333333333;exitDx=0;exitDy=0;exitPerimeter=0;entryX=0;entryY=0.5;entryDx=0;entryDy=0;" edge="1" parent="1" source="UoB7t3MtmNTo_9bZN951-22" target="UoB7t3MtmNTo_9bZN951-5">
          <mxGeometry width="50" height="50" relative="1" as="geometry">
            <mxPoint x="250" y="350" as="sourcePoint" />
            <mxPoint x="300" y="300" as="targetPoint" />
          </mxGeometry>
        </mxCell>
        <mxCell id="UoB7t3MtmNTo_9bZN951-34" value="" style="endArrow=none;html=1;rounded=0;exitX=1;exitY=0.3333333333333333;exitDx=0;exitDy=0;exitPerimeter=0;entryX=0;entryY=0.5;entryDx=0;entryDy=0;" edge="1" parent="1" source="UoB7t3MtmNTo_9bZN951-22" target="UoB7t3MtmNTo_9bZN951-3">
          <mxGeometry width="50" height="50" relative="1" as="geometry">
            <mxPoint x="260" y="360" as="sourcePoint" />
            <mxPoint x="310" y="310" as="targetPoint" />
          </mxGeometry>
        </mxCell>
        <mxCell id="UoB7t3MtmNTo_9bZN951-35" value="" style="endArrow=none;html=1;rounded=0;exitX=1;exitY=0.3333333333333333;exitDx=0;exitDy=0;exitPerimeter=0;entryX=0;entryY=0.5;entryDx=0;entryDy=0;" edge="1" parent="1" source="UoB7t3MtmNTo_9bZN951-22" target="UoB7t3MtmNTo_9bZN951-2">
          <mxGeometry width="50" height="50" relative="1" as="geometry">
            <mxPoint x="270" y="370" as="sourcePoint" />
            <mxPoint x="430" y="150" as="targetPoint" />
          </mxGeometry>
        </mxCell>
        <mxCell id="UoB7t3MtmNTo_9bZN951-36" value="" style="endArrow=none;html=1;rounded=0;exitX=1;exitY=0.3333333333333333;exitDx=0;exitDy=0;exitPerimeter=0;entryX=0;entryY=0.5;entryDx=0;entryDy=0;" edge="1" parent="1" source="UoB7t3MtmNTo_9bZN951-22" target="UoB7t3MtmNTo_9bZN951-10">
          <mxGeometry width="50" height="50" relative="1" as="geometry">
            <mxPoint x="280" y="380" as="sourcePoint" />
            <mxPoint x="330" y="330" as="targetPoint" />
          </mxGeometry>
        </mxCell>
        <mxCell id="UoB7t3MtmNTo_9bZN951-37" value="" style="endArrow=none;html=1;rounded=0;exitX=1;exitY=0.3333333333333333;exitDx=0;exitDy=0;exitPerimeter=0;entryX=0;entryY=0.5;entryDx=0;entryDy=0;" edge="1" parent="1" source="UoB7t3MtmNTo_9bZN951-22" target="UoB7t3MtmNTo_9bZN951-16">
          <mxGeometry width="50" height="50" relative="1" as="geometry">
            <mxPoint x="290" y="390" as="sourcePoint" />
            <mxPoint x="340" y="340" as="targetPoint" />
          </mxGeometry>
        </mxCell>
      </root>
    </mxGraphModel>
  </diagram>
</mxfile>
